<?xml version="1.0" encoding="UTF-8" standalone="no"?>
<!-- Created with Inkscape (http://www.inkscape.org/) -->

<svg
   version="1.1"
   id="svg48"
   width="621.33331"
   height="616"
   viewBox="0 0 621.33331 616"
   sodipodi:docname="logo_delavega.svg"
   inkscape:version="1.2.1 (9c6d41e410, 2022-07-14)"
   xmlns:inkscape="http://www.inkscape.org/namespaces/inkscape"
   xmlns:sodipodi="http://sodipodi.sourceforge.net/DTD/sodipodi-0.dtd"
   xmlns="http://www.w3.org/2000/svg"
   xmlns:svg="http://www.w3.org/2000/svg">
  <defs
     id="defs52" />
  <sodipodi:namedview
     id="namedview50"
     pagecolor="#ffffff"
     bordercolor="#000000"
     borderopacity="0.25"
     inkscape:showpageshadow="2"
     inkscape:pageopacity="0.0"
     inkscape:pagecheckerboard="0"
     inkscape:deskcolor="#d1d1d1"
     showgrid="false"
     inkscape:zoom="1.4090909"
     inkscape:cx="194.80645"
     inkscape:cy="316.16129"
     inkscape:window-width="1920"
     inkscape:window-height="1031"
     inkscape:window-x="1920"
     inkscape:window-y="0"
     inkscape:window-maximized="1"
     inkscape:current-layer="g54" />
  <g
     inkscape:groupmode="layer"
     inkscape:label="Image"
     id="g54">
    <path
       style="fill:#333333;fill-opacity:1;stroke-width:1.29584"
       d="m 520.31014,610.43067 c -9.6133,-1.5079 -25.41076,-7.30324 -32.4617,-11.90869 -12.77213,-8.34234 -25.78247,-22.93895 -31.58356,-35.4344 -5.00011,-10.77012 -7.87417,-21.11709 -7.87417,-28.34793 0,-2.10306 -0.28791,-3.82376 -0.63979,-3.82376 -0.35189,0 -6.32898,2.54743 -13.28242,5.66096 -58.45799,26.17555 -121.68925,29.75789 -182.34459,10.33066 -16.66372,-5.3372 -44.23224,-18.20058 -57.89577,-27.01398 C 130.86998,479.02561 89.340976,413.89757 78.964441,339.13075 c -2.16046,-15.567 -2.159672,-50.01509 0.0019,-66.08812 3.196954,-23.77605 13.755417,-58.77917 23.480509,-77.84193 1.39984,-2.74391 2.54517,-5.26143 2.54517,-5.59445 0,-0.33304 -15.598742,-0.81679 -34.663873,-1.07501 -38.775609,-0.52518 -40.941657,-0.95629 -48.033739,-9.56022 -2.142315,-2.59899 -4.529758,-7.24583 -5.305419,-10.32627 -1.968124,-7.81613 -1.931338,-124.341633 0.04169,-132.17739 0.842099,-3.344267 3.427661,-7.94078 6.155263,-10.942564 8.104514,-8.91919 11.081998,-9.240824 81.423434,-8.795543 55.7007,0.352602 61.08662,0.579481 66.13027,2.785698 6.67286,2.918871 12.63658,9.438499 14.66183,16.028547 0.83303,2.710682 1.79986,17.364042 2.16672,32.83913 l 0.66243,27.944276 13.77808,-8.197027 c 32.15662,-19.131045 69.94501,-30.884556 109.85156,-34.167687 44.96455,-3.699257 95.5842,6.963764 136.36658,28.725602 57.58683,30.728818 100.96901,81.820648 121.39371,142.967118 21.13287,63.26655 16.70036,132.03533 -12.3097,190.98065 -4.20323,8.54051 -9.18752,17.9761 -11.07621,20.96795 -1.88866,2.99185 -3.24607,5.58737 -3.01645,5.76781 0.22964,0.18043 3.87624,1.00174 8.10357,1.82512 12.68942,2.47159 25.64997,9.77317 37.85535,21.32658 9.17961,8.68926 11.79078,12.145 16.71343,22.11933 12.63807,25.6074 12.80891,50.29817 0.52522,75.91439 -4.26353,8.89113 -7.26473,12.93392 -15.87685,21.38707 -11.5181,11.30548 -20.75506,16.9102 -35.2406,21.38291 -8.89965,2.74797 -27.01279,4.35486 -34.98783,3.10395 z m 41.69655,-28.45965 c 1.34299,-3.49977 -2.21489,-4.3642 -18.04737,-4.38485 l -15.22618,-0.0198 v -30.49796 c 0,-25.54012 0.33095,-31.00307 2.03586,-33.60511 1.55286,-2.36995 1.70575,-3.72394 0.64442,-5.70706 -0.80416,-1.50258 -0.89703,-2.90551 -0.22004,-3.32392 0.64427,-0.39817 7.83839,0.95982 15.98694,3.01776 16.80704,4.24467 37.35478,7.36346 40.51745,6.14983 1.30038,-0.499 1.96126,-1.94081 1.70704,-3.72415 -0.30974,-2.17259 -2.87744,-4.12833 -10.1337,-7.71852 l -9.71883,-4.80863 10.36675,-0.0801 c 12.16701,-0.094 16.19808,-0.95898 16.19808,-3.47606 0,-3.09139 -3.33087,-3.42086 -22.65838,-2.24123 -10.24755,0.62546 -20.64198,0.65862 -23.09874,0.0738 -4.35486,-1.03682 -4.48946,-1.26423 -5.36967,-9.07092 -0.49656,-4.4041 -1.82386,-9.02793 -2.94955,-10.27518 -3.51978,-3.89988 -9.14652,-2.84622 -14.75593,2.7632 -2.76702,2.76702 -5.03093,5.68267 -5.03093,6.47923 0,1.9326 -0.13264,1.91884 -16.34788,-1.69593 -23.7205,-5.28784 -34.1901,-5.75628 -34.1901,-1.52976 0,4.60506 10.77516,9.93899 38.22744,18.92334 16.02053,5.24307 15.68794,5.04194 12.28212,7.42747 -2.31009,1.61805 -2.63856,2.68982 -1.845,6.01998 0.531,2.22829 1.1896,18.19236 1.46355,35.4757 l 0.49809,31.42423 h -15.51778 c -15.48854,0 -17.97239,0.69317 -16.47416,4.59751 0.60665,1.58091 6.32807,1.88172 35.79125,1.88172 30.95977,0 35.16246,-0.24311 35.86525,-2.07455 z m -210.61773,-39.4542 c 30.35464,-3.07065 57.21007,-10.74931 83.19029,-23.78626 l 15.74375,-7.90028 2.06616,-7.12714 c 6.58924,-22.72939 23.316,-42.14864 44.7632,-51.9686 7.12367,-3.26171 11.33069,-4.54207 22.70398,-6.90969 6.74594,-1.40434 26.19352,-36.7774 35.31104,-64.22705 24.87583,-74.8924 10.24731,-158.40492 -38.69252,-220.89098 -10.16851,-12.98309 -31.92005,-34.19769 -44.75893,-43.65402 -28.42844,-20.938652 -59.63894,-34.846043 -96.04857,-42.799224 -11.93372,-2.606759 -17.03029,-2.938473 -45.1986,-2.941758 -29.58144,-0.0039 -32.85887,0.234351 -48.0219,3.484419 -30.27197,6.488542 -58.32157,18.153514 -83.17732,34.590913 l -12.33419,8.15674 -0.52115,24.22916 c -0.51164,23.78699 -0.59127,24.36922 -4.3642,31.90329 -3.21488,6.41966 -4.89574,8.20688 -10.28275,10.93333 -5.8611,2.9664 -8.30586,3.31743 -27.21126,3.90715 l -20.77162,0.64791 -6.70072,13.42798 C 92.527445,250.80235 86.299902,310.08946 99.988784,364.3383 c 17.207066,68.19131 63.818286,125.20881 127.219596,155.62229 39.23291,18.81995 82.83096,26.73912 124.18058,22.55623 z m -42.30164,-9.48606 c -32.63006,-13.25026 -64.76647,-31.51111 -76.80221,-43.64126 -14.60875,-14.72335 -25.11459,-37.87452 -32.11176,-70.76301 -2.73236,-12.84281 -4.33916,-62.66867 -4.23517,-131.32957 0.079,-52.19702 0.16961,-52.45991 4.8517,-14.08618 3.10603,25.45678 5.80561,33.96108 18.02351,56.77835 7.288,13.61052 10.57202,18.14525 21.04367,29.0581 8.40567,8.75983 13.04573,12.68608 14.38511,12.17211 1.5083,-0.57878 2.19152,-3.93538 2.8814,-14.15589 0.80327,-11.90041 1.36777,-14.17318 5.05257,-20.34266 8.12501,-13.60376 22.16001,-23.08042 41.72779,-28.17534 12.23735,-3.18627 39.27609,-3.22877 51.18591,-0.0805 13.94908,3.68737 26.65618,10.42536 34.10895,18.0864 9.30517,9.56521 12.50425,16.52632 12.69479,27.62356 0.19877,11.57556 1.32488,16.5789 3.84046,17.06335 2.60749,0.50215 21.71,-19.3315 27.8235,-28.88845 7.68323,-12.01081 18.5739,-35.65882 21.17617,-45.98197 1.34747,-5.34537 3.53297,-19.3405 4.85666,-31.1003 l 2.40672,-21.38145 0.74646,28.50861 c 0.41057,15.67973 0.34172,52.12539 -0.15297,80.99035 -0.86941,50.72947 -1.01692,53.00093 -4.41798,68.03189 -7.14523,31.57831 -15.34457,50.03642 -29.22642,65.79361 -11.51625,13.07202 -47.50121,33.59021 -83.15357,47.41313 -7.60798,2.94972 -15.18868,5.33719 -16.84599,5.30548 -1.65733,-0.0318 -10.59401,-3.13599 -19.8593,-6.8984 z m 11.56477,-152.05763 c 7.90257,-1.99373 9.10252,-1.92093 25.04303,1.51926 8.12763,1.75408 9.96316,1.78388 13.60638,0.22103 8.18888,-3.51286 15.97213,-14.63833 18.41851,-26.32763 1.28757,-6.15225 -3.27027,-8.78895 -13.25078,-7.66553 -18.83388,2.11998 -29.06237,2.37976 -31.9908,0.81251 -2.21582,-1.18587 -3.66687,-1.2289 -5.65003,-0.16753 -3.4621,1.85284 -14.75537,1.82033 -25.81607,-0.0743 -11.6493,-1.9955 -18.19604,-0.76726 -19.29727,3.62037 -1.20636,4.80651 1.35364,11.96348 7.19917,20.12666 8.40992,11.74433 12.54331,12.77777 31.73786,7.93521 z M 246.23881,264.52228 c -16.30017,-2.78592 -24.37215,-6.6732 -29.21974,-14.07157 -4.29297,-6.5519 -13.82859,-36.21862 -14.43762,-44.9176 l -0.5985,-8.54855 7.54966,-2.10731 c 10.18068,-2.8417 42.40482,-5.26023 56.83952,-4.26601 6.44067,0.44362 19.80184,2.84451 29.69148,5.33531 24.70559,6.22233 36.55297,6.2334 60.4871,0.0565 9.53088,-2.45973 22.57706,-4.8542 28.99149,-5.32104 15.05236,-1.09553 49.50235,1.47896 58.13643,4.34459 l 6.65585,2.20906 0.38778,6.69061 c 0.27979,4.82754 -0.49043,8.79681 -2.76602,14.25431 -1.73458,4.16002 -4.73689,12.81185 -6.67176,19.22629 -5.65774,18.75623 -14.10895,24.9897 -36.95252,27.25551 -12.05443,1.19566 -27.61821,-1.25247 -36.9316,-5.80921 -13.25784,-6.48663 -18.8429,-13.367 -27.70021,-34.12456 -3.10025,-7.26558 -9.03641,-10.63925 -16.31705,-9.27341 -5.66628,1.06301 -8.79017,4.64894 -12.24831,14.05994 -8.17258,22.24087 -24.55793,33.60846 -50.40425,34.96867 -6.18865,0.32569 -12.70995,0.34301 -14.49173,0.0385 z m 30.64798,-6.32664 c 15.2028,-4.60806 25.8282,-15.74558 28.91974,-30.31363 2.31494,-10.90845 1.16555,-16.42716 -4.66486,-22.39804 -5.98394,-6.12811 -13.0274,-8.58754 -29.92781,-10.45017 -16.42434,-1.81018 -35.55779,0.13068 -44.41085,4.50493 -9.27757,4.58401 -11.6659,9.39488 -11.65727,23.4815 0.004,6.48723 0.5932,13.9045 1.30939,16.48284 3.1031,11.17133 11.50903,18.14294 24.71227,20.49555 9.23769,1.64602 27.35815,0.73136 35.71939,-1.80298 z m 141.66198,0.10289 c 6.68272,-2.30238 12.10704,-6.82139 15.74421,-13.11656 4.37032,-7.56405 5.14876,-27.52141 1.40371,-35.9877 -3.0775,-6.9572 -6.52294,-9.49002 -16.72044,-12.29152 -9.51142,-2.61303 -36.58376,-2.87791 -48.62844,-0.47578 -15.35527,3.06235 -24.35263,11.34645 -24.31351,22.386 0.0219,6.19232 3.1493,17.11841 6.40978,22.39399 5.46811,8.84757 15.64511,15.26539 29.06643,18.32986 9.22308,2.10589 29.27781,1.4354 37.03826,-1.23829 z M 106.58684,103.93477 c 9.97787,-18.530591 18.42824,-34.420898 18.77859,-35.311785 0.44507,-1.131711 -0.92164,-1.61981 -4.53556,-1.61981 H 115.6573 L 96.070166,101.76806 c -10.772918,19.12069 -19.58713,35.18873 -19.58713,35.70675 0,0.51803 2.691497,0.76413 5.981111,0.54691 l 5.981102,-0.39497 z m -35.287183,28.18331 c 0,-4.69314 -0.552691,-5.28427 -16.026341,-17.14107 l -16.026342,-12.2803 10.518995,-8.222762 c 5.785451,-4.522527 12.97927,-10.075261 15.98627,-12.33943 4.721511,-3.555124 5.472748,-4.788289 5.507347,-9.040467 0.0485,-5.960255 1.479354,-6.708509 -20.460738,10.699764 -16.911815,13.418611 -17.078202,13.602229 -17.026342,18.789765 0.0517,5.1762 0.272167,5.41234 18.4658,19.78274 10.127383,7.9992 18.559207,14.55941 18.737383,14.57826 0.178185,0.0189 0.323968,-2.15308 0.323968,-4.8265 z M 151.3078,121.34377 c 17.03631,-13.42428 17.15971,-13.5598 17.16996,-18.85588 0.0104,-5.311511 -0.0676,-5.396376 -18.14346,-19.761651 -9.98457,-7.934967 -18.47516,-14.427222 -18.86798,-14.427222 -0.39282,0 -0.53323,2.15907 -0.31202,4.79794 0.36378,4.33991 1.51857,5.669749 12.09672,13.930337 6.432,5.022823 13.56618,10.597852 15.85374,12.388967 l 4.1592,3.256559 -16.14152,12.29358 c -15.72475,11.97619 -16.14244,12.42316 -16.17769,17.31169 -0.0274,3.80249 0.35618,4.72365 1.58362,3.80261 0.89088,-0.66851 9.34163,-7.30013 18.77943,-14.73693 z"
       id="path216" />
  </g>
</svg>
